# xmcd CD database file
#
# Track frame offsets:
#	150
#	16151
#	35314
#	52771
#	67931
#	83674
#	101526
#	118064
#	138201
#	163031
#	180729
#	198826
#	215319
#	241849
#
# Disc length: 3228 seconds
#
# Revision: 0
# Processed by: cddbd v1.5.2PL0 Copyright (c) Steve Scherf et al.
# Submitted via: CDex 1.70beta2
#
DISCID=a70c9a0e
DTITLE=Leann Rimes - Twisted Angel
DYEAR=2002
DGENRE=Country
TTITLE0=Life Goes On
TTITLE1=Wound Up
TTITLE2=The Safest Place
TTITLE3=Trouble With Goodbye
TTITLE4=Damn
TTITLE5=Suddenly
TTITLE6=Tic Toc
TTITLE7=Sign Of Life
TTITLE8=Review My Kisses
TTITLE9=No Way Out
TTITLE10=Love Is An Army
TTITLE11=You Made Me Find Myself
TTITLE12=Twisted Angel
TTITLE13=unknown
EXTD=YEAR: 2002
EXTT0=
EXTT1=
EXTT2=
EXTT3=
EXTT4=
EXTT5=
EXTT6=
EXTT7=
EXTT8=
EXTT9=
EXTT10=
EXTT11=
EXTT12=
EXTT13=
PLAYORDER=
